<svg xmlns="http://www.w3.org/2000/svg" viewBox="0 0 100 100"><path d="M62.5,0c-3.5,0-6.2,2.8-6.2,6.2s2.8,6.2,6.2,6.2h16.2l-39.3,39.3c-2.4,2.4-2.4,6.4,0,8.8s6.4,2.4,8.8,0l39.3-39.3v16.2c0,3.5,2.8,6.2,6.2,6.2s6.2-2.8,6.2-6.2V6.2c0-3.5-2.8-6.2-6.2-6.2h-31.2ZM15.6,6.2C7,6.2,0,13.2,0,21.9v62.5c0,8.6,7,15.6,15.6,15.6h62.5c8.6,0,15.6-7,15.6-15.6v-21.9c0-3.5-2.8-6.2-6.2-6.2s-6.2,2.8-6.2,6.2v21.9c0,1.7-1.4,3.1-3.1,3.1H15.6c-1.7,0-3.1-1.4-3.1-3.1V21.9c0-1.7,1.4-3.1,3.1-3.1h21.9c3.5,0,6.2-2.8,6.2-6.2s-2.8-6.2-6.2-6.2H15.6Z"/></svg>