<svg xmlns="http://www.w3.org/2000/svg" viewBox="0 0 100 100"><path d="M16.7 5.4c2 0 3.7 1.4 4.1 3.4l.3 2.2h73.3c3.5 0 6.4 3.5 5.4 7.1l-9.4 33.5c-.7 2.4-2.9 4.1-5.4 4.1H29.8l1.6 8.4h53.7c2.3 0 4.2 1.9 4.2 4.2 0 2.3-1.9 4.2-4.2 4.2H27.7c-1.8 0-3.6-1.4-4-3.4L13.3 13.7H4.2C1.9 13.7 0 11.9 0 9.6s1.9-4.2 4.2-4.2h12.5zm5.6 80.9c0-4.6 3.7-8.4 8.4-8.4s8.4 3.7 8.4 8.4c0 4.6-3.7 8.4-8.4 8.4s-8.4-3.8-8.4-8.4zm66.9 0c0 4.6-3.7 8.4-8.4 8.4-4.6 0-8.4-3.7-8.4-8.4 0-4.6 3.7-8.4 8.4-8.4s8.4 3.7 8.4 8.4z"/></svg>