<svg xmlns="http://www.w3.org/2000/svg" viewBox="0 0 100 100"><path d="M93.8 68.8H67.7l-8.8 8.8c-2.4 2.4-5.5 3.7-8.8 3.7s-6.5-1.3-8.8-3.7l-8.8-8.8H6.2C2.8 68.8 0 71.5 0 75v18.8c0 3.5 2.8 6.2 6.2 6.2h87.5c3.5 0 6.2-2.8 6.2-6.2V75c.1-3.5-2.7-6.2-6.1-6.2zm-9.4 20.3c-2.6 0-4.7-2.1-4.7-4.7s2.1-4.7 4.7-4.7 4.7 2.1 4.7 4.7-2.1 4.7-4.7 4.7zM45.6 73.2c1.2 1.2 2.8 1.8 4.4 1.8 1.6 0 3.2-.6 4.4-1.8l25-25c2.4-2.4 2.4-6.4 0-8.8-2.4-2.4-6.4-2.4-8.8 0L56.2 53.7V6.2C56.2 2.8 53.5 0 50 0s-6.2 2.8-6.2 6.2v47.4L29.4 39.3c-2.4-2.4-6.4-2.4-8.8 0-2.4 2.4-2.4 6.4 0 8.8l25 25.1z"/></svg>