<svg xmlns="http://www.w3.org/2000/svg" viewBox="0 0 100 100"><path d="M100 50c0 27.6-22.4 50-50 50S0 77.6 0 50 22.4 0 50 0s50 22.4 50 50zM11.3 37.5l1.8 3.4c1.6 2.8 4.3 4.9 7.4 5.8l11.1 3.2c3.5 1 5.8 4 5.8 7.5v7.8c0 2.1 1.2 4.1 3.1 4.9 1.9 1.1 3.1 3.1 3.1 5.2V83c0 3 2.9 5.2 5.8 4.4 3.2-.9 5.6-3.6 6.4-6.6l.5-2.2c.8-3.3 3-6.1 5.9-7.8l1.6-.9c2.9-1.7 4.7-4.8 4.7-8.1v-1.6c0-2.5-1-4.9-2.8-6.6l-.7-.7c-1.8-1.8-4.2-2.9-6.6-2.9H50c-2 0-4.1-.4-6-1.5l-6.7-3.9c-.8-.5-1.5-1.2-1.8-2.2-.6-1.9.2-3.9 2-4.8l1.2-.6c1.3-.6 2.8-.8 4-.3l4.7 1.5c1.6.5 3.3-.1 4.3-1.5.9-1.4.8-3.2-.2-4.5L48.8 29c-2-2.3-1.9-5.8.1-8.1l3.1-3.6c1.7-2 2-4.9.7-7.2l-.7-.7c-.8 0-1.3-.1-2-.1-18.1.1-33.5 12-38.7 28.2zm74.2-7.3-5 2c-3.1 1.2-4.6 4.6-3.6 7.8l3.3 9.9c.7 2 2.3 3.6 4.4 4.1l5.7 1.4c.2-1.8.4-3.6.4-5.4-.1-7.2-1.9-13.9-5.2-19.8z"/></svg>