<svg xmlns="http://www.w3.org/2000/svg" viewBox="0 0 100 100"><path d="M29.7 59.4h-1.6V50h1.6c2.6 0 4.7 2.1 4.7 4.7s-2.1 4.7-4.7 4.7zM50 50h1.6c1.7 0 3.1 1.4 3.1 3.1v12.5c0 1.7-1.4 3.1-3.1 3.1H50V50zm6.2-50v25c0 3.5 2.8 6.2 6.2 6.2h25v56.2c0 6.9-5.6 12.5-12.5 12.5H25c-6.9 0-12.5-5.6-12.5-12.5v-75C12.5 5.6 18.1 0 25 0h31.2zM25 43.8c-1.7 0-3.1 1.4-3.1 3.1v25c0 1.7 1.4 3.1 3.1 3.1s3.1-1.4 3.1-3.1v-6.2h1.6c6 0 10.9-4.9 10.9-10.9s-4.9-10.9-10.9-10.9H25zm18.8 28.1c0 1.7 1.4 3.1 3.1 3.1h4.7c5.2 0 9.4-4.2 9.4-9.4V53.1c0-5.2-4.2-9.4-9.4-9.4h-4.7c-1.7 0-3.1 1.4-3.1 3.1v25.1zm25-28.1c-1.7 0-3.1 1.4-3.1 3.1v25c0 1.7 1.4 3.1 3.1 3.1s3.1-1.4 3.1-3.1v-9.4h6.2c1.7 0 3.1-1.4 3.1-3.1s-1.4-3.1-3.1-3.1h-6.2V50h6.2c1.7 0 3.1-1.4 3.1-3.1s-1.4-3.1-3.1-3.1h-9.3zM62.5 0l25 25h-25V0z"/></svg>