<svg xmlns="http://www.w3.org/2000/svg" viewBox="0 0 100 100"><path d="M56.2 25V0H21.9c-5.2 0-9.4 4.2-9.4 9.4v81.2c0 5.2 4.2 9.4 9.4 9.4h56.2c5.2 0 9.4-4.2 9.4-9.4V31.2H62.7c-3.7 0-6.5-2.7-6.5-6.2zm11.3 21.9H72c1.5 0 2.6 1.4 2.3 2.9L66 85.7c-.2 1.1-1.2 1.8-2.3 1.8H58c-1.1 0-2-.7-2.3-1.7L50 64.3l-5.8 21.3c-.4 1.2-1.2 1.9-2.3 1.9h-5.7c-1.1 0-2-.8-2.3-1.8l-8.3-35.9c-.3-1.5.8-2.9 2.3-2.9h4.6c1.1 0 2 .8 2.3 1.8l4.6 20.1 5.4-20.1c.3-1 1.2-1.7 2.3-1.7h5.8c1.1 0 2 .7 2.3 1.7l5.4 20.1 4.6-20.1c.2-1.1 1-1.8 2.3-1.8zM62.5 0v25h25l-25-25z"/></svg>