<svg xmlns="http://www.w3.org/2000/svg" viewBox="0 0 100 100"><path d="M12.8 55.1c0 8.7 6.8 12.8 12.3 12.8 5.5 0 12.3-4.2 12.3-12.8 0-6.7-6.6-12.1-12.3-15.3-5.6 3.3-12.3 8.6-12.3 15.3zm50-.1c0 8.6 6.8 12.8 12.3 12.8 5.5 0 12.3-4.2 12.3-12.8 0-6.7-6.6-12.1-12.3-15.3-5.6 3.2-12.3 8.6-12.3 15.3zM25.3 33.2c6.1-3.2 14.6-5.7 24.7-5.7 10.2 0 18.6 2.5 24.7 5.7 6-3.1 15.4-5.6 25.3-5.7V17.4H0v10.2c9.9.1 19.3 2.5 25.3 5.6z"/><path d="M81 36.8c6.2 4.1 12.2 10.4 12.2 18.3 0 10.4-8.8 18.4-18.4 18.4-9.6 0-18.1-8-18.1-18.4 0-7.9 5.7-14.2 11.9-18.3-5.9-2.4-12.6-3.6-18.6-3.6-6 0-12.8 1.1-18.5 3.6 6.2 4.1 11.9 10.4 11.9 18.3 0 10.4-8.5 18.4-18.1 18.4-9.6 0-18.5-8-18.5-18.4 0-7.9 6.1-14.2 12.3-18.3-5.5-2.4-13.1-3.5-19-3.6v49.4h100V33.2c-6 .1-13.7 1.3-19.1 3.6z"/></svg>