<svg xmlns="http://www.w3.org/2000/svg" viewBox="0 0 100 100"><path d="M96.9 32.5c.6 1.7.1 3.6-1.2 4.8L87.2 45a41.93 41.93 0 0 1 0 10l8.5 7.7c1.3 1.2 1.9 3.1 1.2 4.8-.9 2.3-1.9 4.5-3.1 6.7l-.9 1.6c-1.3 2.1-2.7 4.2-4.3 6.1-1.2 1.4-3.1 1.9-4.8 1.3l-10.9-3.5c-2.6 2-5.7 3.7-8.6 5l-2.4 11.2c-.4 1.8-1.8 3-3.6 3.5-2.7.4-5.5.7-8.5.7-2.7 0-5.4-.2-8.1-.7-1.8-.5-3.2-1.7-3.6-3.5l-2.4-11.2c-3.1-1.3-6-3-8.6-5l-10.9 3.5c-1.7.5-3.6.1-4.8-1.3-1.6-1.9-3-4-4.3-6.1l-.9-1.6C5 72 4 69.8 3.1 67.5c-.6-1.7-.1-3.6 1.2-4.8l8.4-7.7a41.93 41.93 0 0 1 0-10l-8.4-7.7c-1.3-1.2-1.9-3.1-1.2-4.8C4 30.2 5 28 6.2 25.8l.9-1.6c1.3-2.1 2.7-4.2 4.3-6.1 1.2-1.4 3.1-1.9 4.8-1.3l10.9 3.5c2.6-2 5.5-3.7 8.6-5l2.4-11.2c.4-1.8 1.8-3.2 3.6-3.5C44.4.2 47.2 0 50 0s5.6.2 8.3.7c1.8.3 3.2 1.7 3.6 3.5l2.4 11.2c2.9 1.3 6 3 8.6 5l10.9-3.5c1.7-.6 3.6-.1 4.8 1.3 1.6 1.9 3 4 4.3 6.1l.9 1.6c1.2 2.1 2.2 4.3 3.1 6.6zM50 65.6c8.6 0 15.6-7 15.6-15.8 0-8.5-7-15.6-15.6-15.6s-15.6 7.2-15.6 15.6c0 8.8 7 15.8 15.6 15.8z"/></svg>