<svg xmlns="http://www.w3.org/2000/svg" viewBox="0 0 100 100"><path d="M50 24.4c-14.2 0-25.6 11.4-25.6 25.6S35.8 75.6 50 75.6 75.6 64.2 75.6 50 64.2 24.4 50 24.4zm0 42.3c-9.2 0-16.7-7.5-16.7-16.7S40.8 33.3 50 33.3 66.7 40.8 66.7 50 59.2 66.7 50 66.7zm32.7-43.4c0 3.3-2.7 6-6 6s-6-2.7-6-6 2.7-6 6-6 6 2.7 6 6zm16.9 6.1c-.4-8-2.2-15.1-8.1-20.9C85.7 2.7 78.6.8 70.6.4c-8.3-.5-33-.5-41.2 0-8 .4-15.1 2.2-20.9 8.1S.8 21.4.4 29.4c-.5 8.3-.5 33 0 41.2.4 8 2.2 15.1 8.1 20.9s12.9 7.7 20.9 8.1c8.3.5 33 .5 41.2 0 8-.4 15.1-2.2 20.9-8.1 5.8-5.8 7.7-12.9 8.1-20.9.5-8.2.5-33 0-41.2zM89 79.5c-1.7 4.4-5.1 7.7-9.5 9.5-6.6 2.6-22.2 2-29.5 2s-22.9.6-29.5-2c-4.4-1.7-7.7-5.1-9.5-9.5C8.4 72.9 9 57.3 9 50s-.6-22.9 2-29.5c1.7-4.4 5.1-7.7 9.5-9.5C27.1 8.4 42.7 9 50 9s22.9-.6 29.5 2c4.4 1.7 7.7 5.1 9.5 9.5 2.6 6.6 2 22.2 2 29.5s.6 22.9-2 29.5z"/></svg>