<svg xmlns="http://www.w3.org/2000/svg" viewBox="0 0 100 100"><path d="M50 2.3C22.4 2.3 0 20.6 0 42.9c0 20 17.8 36.8 41.8 40 5.9 1.3 5.2 3.4 3.9 11.3-.2 1.3-1 4.9 4.3 2.7s28.8-17 39.3-29c7.2-8 10.7-16 10.7-25 0-22.3-22.4-40.6-50-40.6zM32.3 54.9c0 .6-.4 1-1 1h-14c-.3 0-.5-.1-.7-.3-.2-.2-.3-.4-.3-.7V33.1c0-.6.4-1 1-1h3.5c.6 0 1 .4 1 1v17.3h9.5c.5 0 1 .5 1 1v3.5zm8.5 0c0 .6-.4 1-1 1h-3.5c-.6 0-1-.4-1-1V33.1c0-.6.4-1 1-1h3.5c.6 0 1 .5 1 1v21.8zm24.2 0c0 .6-.4 1-1 1h-3.5c-.3 0-.6-.2-.8-.4L49.7 42v12.9c0 .6-.4 1-1 1h-3.5c-.6 0-1-.4-1-1V33.1c0-.6.4-1 1-1h3.5c.3 0 .6.2.8.4l10 13.5V33.1c0-.6.4-1 1-1H64c.6 0 1 .4 1 1v21.8zm19.3-18.3c0 .6-.4 1-1 1h-9.5v3.7h9.5c.6 0 1 .4 1 1v3.5c0 .6-.4 1-1 1h-9.5v3.7h9.5c.6 0 1 .4 1 1V55c0 .6-.4 1-1 1h-14c-.6 0-1-.5-1-1V33.1c0-.6.5-1 1-1h14c.5 0 1 .5 1 1v3.5z"/></svg>