<svg xmlns="http://www.w3.org/2000/svg" viewBox="0 0 100 100"><path d="M25 87.3V43.6c0-3.5-2.8-6.1-6.2-6.1H6.2c-3.5 0-6.2 2.8-6.2 6.1v43.6c0 3.5 2.8 6.1 6.2 6.1h12.5c3.5.3 6.3-2.4 6.3-6zm75-43.5c0-5.2-4.2-9.4-9.4-9.4H62c4.4-7.4 6.7-15.8 6.7-18.8 0-4.6-3.6-9.4-9.7-9.4-12.3 0-5.1 14.9-21.1 27.7l-3.2 2.5c-2.3 1.9-3.5 4.6-3.5 7.3v31.2c0 2.9 1.4 5.7 3.8 7.5l6.7 5c5.4 4.1 12 6.3 18.7 6.3h11.5c5.2 0 9.4-4.2 9.4-9.4 0-.7-.1-1.4-.2-2.1 3.8-1.2 6.5-4.7 6.5-8.9 0-1.8-.5-3.4-1.4-4.9 4.3-.8 7.6-4.6 7.6-9.2 0-2.4-1-4.6-2.5-6.3 4.8-.1 8.7-4.2 8.7-9.1z"/></svg>