<svg xmlns="http://www.w3.org/2000/svg" viewBox="0 0 100 100"><path d="M32.7 3.5c1-2.2 3.2-3.5 5.5-3.5h23.5c2.4 0 4.5 1.3 5.6 3.5l1.4 2.8h18.8c3.5 0 6.2 2.8 6.2 6.2s-2.8 6.2-6.2 6.2h-75c-3.5 0-6.2-2.8-6.2-6.2S9 6.2 12.5 6.2h18.8l1.4-2.7zM12.3 25h75.2v62.5c0 6.9-5.6 12.5-12.5 12.5H24.8c-6.7 0-12.5-5.6-12.5-12.5V25zm15.6 15.6v43.8c0 1.7 1.6 3.1 3.1 3.1 1.9 0 3.1-1.4 3.1-3.1V40.6c0-1.7-1.2-3.1-3.1-3.1-1.5 0-3.1 1.4-3.1 3.1zm18.8 0v43.8c0 1.7 1.6 3.1 3.1 3.1 1.9 0 3.3-1.4 3.3-3.1V40.6c0-1.7-1.4-3.1-3.3-3.1-1.5 0-3.1 1.4-3.1 3.1zm18.9 0v43.8c0 1.7 1.4 3.1 3.1 3.1s3.1-1.4 3.1-3.1V40.6c0-1.7-1.4-3.1-3.1-3.1s-3.1 1.4-3.1 3.1z"/></svg>