<svg xmlns="http://www.w3.org/2000/svg" viewBox="0 0 100 100"><path d="M84.4,12.5h-43.8c-1.7,0-3.1,1.4-3.1,3.1v3.1h-12.5v-3.1c0-8.6,7-15.6,15.6-15.6h43.8c8.6,0,15.6,7,15.6,15.6v43.8c0,8.6-7,15.6-15.6,15.6h-3.1v-12.5h3.1c1.7,0,3.1-1.4,3.1-3.1V15.6c0-1.7-1.4-3.1-3.1-3.1ZM0,37.5c0-6.9,5.6-12.5,12.5-12.5h50c6.9,0,12.5,5.6,12.5,12.5v50c0,6.9-5.6,12.5-12.5,12.5H12.5c-6.9,0-12.5-5.6-12.5-12.5v-50ZM12.5,43.8c0,3.5,2.8,6.2,6.2,6.2h37.5c3.5,0,6.2-2.8,6.2-6.2s-2.8-6.2-6.2-6.2H18.8c-3.5,0-6.2,2.8-6.2,6.2Z"/></svg>